<?xml version="1.0" encoding="utf-8"?>
<!-- Generator: Adobe Illustrator 24.0.2, SVG Export Plug-In . SVG Version: 6.00 Build 0)  -->
<svg version="1.1" id="Logotype" xmlns="http://www.w3.org/2000/svg" xmlns:xlink="http://www.w3.org/1999/xlink" x="0px" y="0px"
	 viewBox="0 0 1160 170" style="enable-background:new 0 0 1160 170;" xml:space="preserve">
<style type="text/css">
	.st0{fill:#30C4C9;}
	.st1{fill:#24B694;}
	.st2{fill:#209277;}
	.st3{font-family:'ArialRoundedMTBold';}
	.st4{font-size:95px;}
	.st5{opacity:0.5;}
	.st6{fill:#A3E5E5;}
	.st7{fill:url(#LINE_1_);}
</style>
<g id="LOGO">
	<g id="map">
		<polygon class="st0" points="0,142.4 27.8,109 59.5,126.9 48,170 		"/>
		<polygon class="st0" points="56.3,168.3 62,126.3 91.2,111 100.4,145.6 		"/>
		<polygon class="st0" points="105.1,144.5 96.3,112.5 130.5,130 151,170 		"/>
	</g>
	<g id="point">
		<path class="st1" d="M36,39.4c0-2.8,0-18.2,12-29.4c2.6-2.4,10.7-9.7,23-9.7c12.3,0,20.4,7.4,23,9.7c12,10.9,13,24.2,13,28.8
			c0,0.1,0,0.3,0,0.4c-1.5,13.9-5.6,21.4-8.6,26.5c-2.8,4.6-5.6,7.9-10.9,14C81,87.3,75.1,93.1,71,97c-6.4-7-11.6-13-15.6-17.6
			C44.6,67,42.6,64.1,40.7,60.1C39.2,56.9,36.2,49.5,36,39.4z"/>
	</g>
	<g id="ring">
		<circle class="st2" cx="71.4" cy="32.6" r="23.4"/>
	</g>
</g>
<g id="TEXT">
	<text transform="matrix(1 0 0 1 141.1321 95.8203)" class="st1 st3 st4">FRYTOL NA CESTÁCH</text>
</g>
<g id="MOUNTAINS" class="st5">
	<polygon id="all" class="st6" points="157,155 185.5,119 214,149 304.6,149 344,96 355.7,109.2 377.5,85 420.8,134 497,132 
		506,120 518.3,136.4 563.6,134 632.1,134 658.5,108 695,144 1028,141 1056.5,108 1066.9,120 1069.2,116.8 1089,134 1157.1,134 
		1134.2,147.1 167.5,161.4 	"/>
</g>
<linearGradient id="LINE_1_" gradientUnits="userSpaceOnUse" x1="137" y1="150" x2="1160" y2="150">
	<stop  offset="0" style="stop-color:#30C4C9"/>
	<stop  offset="1" style="stop-color:#A3E5E5"/>
</linearGradient>
<path id="LINE" class="st7" d="M1132.7,170c-325.6,0-651.2,0-976.8,0c-6.3-13.3-12.6-26.7-18.9-40c341,0,682,0,1023,0
	C1150.9,143.3,1141.8,156.7,1132.7,170z"/>
</svg>
